<svg width="50" height="50" viewBox="0 0 50 50" fill="none" xmlns="http://www.w3.org/2000/svg">
<g clip-path="url(#clip0_3049_1539)">
<path d="M25 4.16675C36.5063 4.16675 45.8334 13.4938 45.8334 25.0001C45.8334 36.5063 36.5063 45.8334 25 45.8334C13.4938 45.8334 4.16669 36.5063 4.16669 25.0001C4.16669 13.4938 13.4938 4.16675 25 4.16675ZM25 8.33342C20.5797 8.33342 16.3405 10.0894 13.2149 13.215C10.0893 16.3406 8.33335 20.5798 8.33335 25.0001C8.33335 29.4204 10.0893 33.6596 13.2149 36.7852C16.3405 39.9108 20.5797 41.6668 25 41.6668C29.4203 41.6668 33.6595 39.9108 36.7851 36.7852C39.9107 33.6596 41.6667 29.4204 41.6667 25.0001C41.6667 20.5798 39.9107 16.3406 36.7851 13.215C33.6595 10.0894 29.4203 8.33342 25 8.33342ZM32.3646 17.4605C32.7386 17.0829 33.2429 16.8625 33.7741 16.8445C34.3053 16.8265 34.8233 17.0122 35.2221 17.3636C35.6208 17.7149 35.8702 18.2055 35.9192 18.7347C35.9682 19.264 35.813 19.7919 35.4854 20.2105L35.3125 20.4063L23.675 32.0459C23.2778 32.4431 22.7486 32.6805 22.1879 32.7131C21.6271 32.7458 21.074 32.5714 20.6334 32.223L20.4334 32.0459L14.6875 26.3001C14.3099 25.926 14.0895 25.4218 14.0715 24.8906C14.0535 24.3594 14.2392 23.8414 14.5906 23.4426C14.942 23.0438 15.4325 22.7945 15.9617 22.7455C16.491 22.6965 17.0189 22.8517 17.4375 23.1793L17.6334 23.3542L22.0542 27.773L32.3667 17.4605H32.3646Z" fill="white"/>
</g>
<defs>
<clipPath id="clip0_3049_1539">
<rect width="50" height="50" fill="white"/>
</clipPath>
</defs>
</svg>
