<svg width="30" height="30" viewBox="0 0 30 30" fill="none" xmlns="http://www.w3.org/2000/svg">
<path fill-rule="evenodd" clip-rule="evenodd" d="M12.2762 4.01501C12.6462 3.15251 13.6013 2.37001 14.8063 2.60251C16.6488 2.95626 18.605 4.35376 18.7425 6.62001L18.75 6.87501V10H21.7563C22.468 9.99997 23.1715 10.1519 23.8198 10.4456C24.4681 10.7393 25.0463 11.168 25.5156 11.7031C25.9849 12.2382 26.3345 12.8673 26.5412 13.5484C26.7478 14.2295 26.8066 14.9469 26.7138 15.6525L26.6763 15.895L25.5387 22.145C25.3371 23.2551 24.7659 24.2643 23.9181 25.0086C23.0702 25.753 21.9956 26.1887 20.8687 26.245L20.62 26.25H7.5C6.54349 26.2501 5.62311 25.8846 4.92717 25.2284C4.23124 24.5722 3.81237 23.6749 3.75625 22.72L3.75 22.5V15C3.74995 14.0435 4.11541 13.1231 4.7716 12.4272C5.4278 11.7312 6.32513 11.3124 7.28 11.2563L7.5 11.25H9.175L12.2762 4.01501ZM8.75 13.75H7.5C7.16848 13.75 6.85054 13.8817 6.61612 14.1161C6.3817 14.3505 6.25 14.6685 6.25 15V22.5C6.25 22.8315 6.3817 23.1495 6.61612 23.3839C6.85054 23.6183 7.16848 23.75 7.5 23.75H8.75V13.75ZM14.5312 5.10001L11.3513 12.5213C11.3068 12.6246 11.2765 12.7335 11.2612 12.845L11.25 13.0125V23.75H20.62C21.1712 23.7501 21.7069 23.568 22.1439 23.232C22.5809 22.8961 22.8946 22.4252 23.0363 21.8925L23.08 21.6975L24.2175 15.4475C24.2804 15.1025 24.2699 14.7481 24.1869 14.4074C24.1038 14.0667 23.95 13.7473 23.7355 13.4699C23.5209 13.1925 23.2504 12.9633 22.9415 12.7973C22.6326 12.6313 22.2922 12.5321 21.9425 12.5063L21.7563 12.5H18.75C18.1193 12.5002 17.5118 12.262 17.0493 11.8331C16.5868 11.4043 16.3036 10.8165 16.2563 10.1875L16.25 10V6.87501C16.25 6.18376 15.7075 5.48001 14.7437 5.16251L14.5312 5.10001Z" fill="white"/>
</svg>
