<svg width="46" height="46" viewBox="0 0 46 46" fill="none" xmlns="http://www.w3.org/2000/svg">
<g clip-path="url(#clip0_3047_619)">
<path d="M23 3.83337C33.5857 3.83337 42.1666 12.4143 42.1666 23C42.1666 33.5858 33.5857 42.1667 23 42.1667C12.4142 42.1667 3.83331 33.5858 3.83331 23C3.83331 12.4143 12.4142 3.83337 23 3.83337ZM30.6666 21.0834H15.3333C14.825 21.0834 14.3375 21.2853 13.978 21.6448C13.6186 22.0042 13.4166 22.4917 13.4166 23C13.4166 23.5084 13.6186 23.9959 13.978 24.3553C14.3375 24.7148 14.825 24.9167 15.3333 24.9167H30.6666C31.175 24.9167 31.6625 24.7148 32.0219 24.3553C32.3814 23.9959 32.5833 23.5084 32.5833 23C32.5833 22.4917 32.3814 22.0042 32.0219 21.6448C31.6625 21.2853 31.175 21.0834 30.6666 21.0834Z" fill="white"/>
</g>
<defs>
<clipPath id="clip0_3047_619">
<rect width="46" height="46" fill="white"/>
</clipPath>
</defs>
</svg>
