<svg width="30" height="30" viewBox="0 0 30 30" fill="none" xmlns="http://www.w3.org/2000/svg">
<g clip-path="url(#clip0_3047_165)">
<path fill-rule="evenodd" clip-rule="evenodd" d="M13.1251 2.5C13.8501 2.5 14.5626 2.5725 15.2488 2.7125C15.5737 2.77847 15.8591 2.97081 16.0422 3.24719C16.2253 3.52357 16.291 3.86136 16.2251 4.18625C16.1591 4.51114 15.9668 4.79652 15.6904 4.9796C15.414 5.16268 15.0762 5.22847 14.7513 5.1625C13.1769 4.84133 11.5427 4.99418 10.0551 5.60173C8.56762 6.20928 7.29363 7.24426 6.39426 8.57579C5.49489 9.90732 5.01052 11.4756 5.00239 13.0824C4.99426 14.6892 5.46273 16.2623 6.34858 17.6029C7.23443 18.9435 8.49787 19.9913 9.97917 20.6139C11.4605 21.2364 13.0931 21.4058 14.6707 21.1006C16.2482 20.7954 17.6999 20.0293 18.842 18.8991C19.9842 17.7689 20.7657 16.3255 21.0876 14.7512C21.1202 14.5904 21.1843 14.4375 21.276 14.3014C21.3678 14.1653 21.4854 14.0486 21.6223 13.9579C21.7591 13.8672 21.9125 13.8044 22.0736 13.7731C22.2347 13.7417 22.4005 13.7423 22.5613 13.775C22.7222 13.8077 22.8751 13.8717 23.0112 13.9634C23.1473 14.0552 23.264 14.1728 23.3547 14.3097C23.4453 14.4465 23.5081 14.5999 23.5395 14.761C23.5709 14.9222 23.5702 15.0879 23.5376 15.2488C23.2345 16.74 22.6133 18.1483 21.7163 19.3775L21.4701 19.7025L26.0351 24.2675C26.2616 24.4919 26.3939 24.7945 26.4047 25.1132C26.4155 25.4319 26.3041 25.7427 26.0932 25.982C25.8824 26.2212 25.5881 26.3709 25.2705 26.4003C24.953 26.4296 24.6362 26.3365 24.3851 26.14L24.2676 26.035L19.7026 21.47C18.3719 22.5187 16.8097 23.234 15.1463 23.5561C13.483 23.8783 11.7667 23.798 10.1407 23.322C8.5147 22.846 7.02611 21.988 5.79912 20.8197C4.57213 19.6513 3.64233 18.2065 3.0873 16.6057C2.53226 15.005 2.36808 13.2947 2.60846 11.6176C2.84884 9.94043 3.4868 8.34511 4.46912 6.96469C5.45144 5.58427 6.74963 4.45878 8.25539 3.68212C9.76115 2.90546 11.4308 2.50014 13.1251 2.5ZM23.7501 1.25C23.9839 1.25 24.2131 1.3156 24.4115 1.43934C24.6099 1.56308 24.7697 1.74 24.8726 1.95L24.9326 2.09625L25.0951 2.56875C25.2666 3.07148 25.5429 3.53204 25.9058 3.91993C26.2687 4.30782 26.7099 4.61419 27.2001 4.81875L27.4313 4.90625L27.9038 5.0675C28.1378 5.14733 28.3429 5.29475 28.4931 5.49112C28.6433 5.68749 28.7319 5.924 28.7477 6.17072C28.7635 6.41745 28.7057 6.66331 28.5818 6.87723C28.4578 7.09114 28.2732 7.2635 28.0513 7.3725L27.9038 7.4325L27.4313 7.595C26.9286 7.7665 26.468 8.04285 26.0801 8.40574C25.6923 8.76863 25.3859 9.20979 25.1813 9.7L25.0938 9.93125L24.9326 10.4037C24.8526 10.6377 24.7051 10.8426 24.5086 10.9927C24.3122 11.1428 24.0756 11.2312 23.8289 11.2469C23.5822 11.2625 23.3364 11.2047 23.1226 11.0807C22.9087 10.9566 22.7365 10.7719 22.6276 10.55L22.5676 10.4037L22.4051 9.93125C22.2336 9.42852 21.9572 8.96796 21.5943 8.58007C21.2314 8.19218 20.7903 7.88581 20.3001 7.68125L20.0688 7.59375L19.5963 7.4325C19.3623 7.35267 19.1573 7.20525 19.0071 7.00888C18.8569 6.81251 18.7683 6.576 18.7525 6.32928C18.7367 6.08255 18.7944 5.83669 18.9184 5.62277C19.0423 5.40886 19.2269 5.2365 19.4488 5.1275L19.5963 5.0675L20.0688 4.905C20.5716 4.7335 21.0321 4.45715 21.42 4.09426C21.8079 3.73137 22.1143 3.29021 22.3188 2.8L22.4063 2.56875L22.5676 2.09625C22.6518 1.84948 22.8111 1.63523 23.0231 1.48349C23.2351 1.33174 23.4893 1.2501 23.7501 1.25ZM23.7501 5.245C23.4543 5.61708 23.1172 5.95426 22.7451 6.25C23.1176 6.545 23.4538 6.8825 23.7501 7.255C24.0451 6.8825 24.3826 6.545 24.7551 6.25C24.383 5.95426 24.0458 5.61708 23.7501 5.245Z" fill="white"/>
</g>
<defs>
<clipPath id="clip0_3047_165">
<rect width="30" height="30" fill="white"/>
</clipPath>
</defs>
</svg>
