<svg width="50" height="50" viewBox="0 0 50 50" fill="none" xmlns="http://www.w3.org/2000/svg">
<g clip-path="url(#clip0_3049_1527)">
<path fill-rule="evenodd" clip-rule="evenodd" d="M19.9708 31.25C21.0758 31.2502 22.1354 31.6893 22.9166 32.4708L25 34.5541L27.0833 32.4708C27.8645 31.6893 28.9241 31.2502 30.0291 31.25H38.4124C39.806 31.2501 41.1596 31.716 42.258 32.5736C43.3565 33.4312 44.1368 34.6314 44.4749 35.9833L45.7708 41.1625C45.8425 41.4296 45.8602 41.7084 45.823 41.9824C45.7858 42.2565 45.6944 42.5204 45.5542 42.7588C45.4139 42.9972 45.2276 43.2053 45.006 43.3709C44.7845 43.5365 44.5322 43.6564 44.2639 43.7234C43.9956 43.7905 43.7166 43.8035 43.4431 43.7616C43.1697 43.7197 42.9074 43.6238 42.6715 43.4795C42.4355 43.3352 42.2307 43.1453 42.0689 42.921C41.9071 42.6966 41.7916 42.4423 41.7291 42.1729L40.4354 36.9958C40.3229 36.5449 40.0629 36.1445 39.6967 35.8584C39.3306 35.5723 38.8792 35.4168 38.4145 35.4166H30.0291L27.9458 37.5C27.1644 38.2811 26.1048 38.7199 25 38.7199C23.8951 38.7199 22.8355 38.2811 22.0541 37.5L19.9708 35.4166H11.5875C11.1227 35.4168 10.6714 35.5723 10.3052 35.8584C9.93907 36.1445 9.67908 36.5449 9.56662 36.9958L8.27079 42.1729C8.20831 42.4423 8.09281 42.6966 7.93101 42.921C7.76922 43.1453 7.56438 43.3352 7.32843 43.4795C7.09248 43.6238 6.83015 43.7197 6.55675 43.7616C6.28335 43.8035 6.00434 43.7905 5.73601 43.7234C5.46768 43.6564 5.21539 43.5365 4.99386 43.3709C4.77233 43.2053 4.586 42.9972 4.44573 42.7588C4.30546 42.5204 4.21407 42.2565 4.17688 41.9824C4.13969 41.7084 4.15745 41.4296 4.22912 41.1625L5.52287 35.9833C5.86105 34.6314 6.64135 33.4312 7.73979 32.5736C8.83823 31.716 10.1918 31.2501 11.5854 31.25H19.9708ZM25 4.16663C26.6333 4.16663 28.4604 4.56246 29.9583 4.98121C33.4229 5.94579 35.4166 9.18746 35.4166 12.4937V20.8395C35.4166 24.1479 33.4229 27.3875 29.9583 28.352C28.4604 28.7687 26.6333 29.1666 25 29.1666C23.3666 29.1666 21.5395 28.7708 20.0416 28.352C16.577 27.3875 14.5833 24.1479 14.5833 20.8395V12.4937C14.5833 9.18746 16.577 5.94579 20.0416 4.98121C21.5395 4.56454 23.3666 4.16663 25 4.16663ZM25 8.33329C23.9395 8.33329 22.5479 8.60829 21.1604 8.99579C19.7687 9.38329 18.75 10.7604 18.75 12.4937V20.8395C18.75 22.5729 19.7687 23.95 21.1604 24.3395C22.5479 24.725 23.9395 25 25 25C26.0604 25 27.452 24.725 28.8395 24.3375C30.2312 23.95 31.25 22.5729 31.25 20.8395V12.4937C31.25 10.7604 30.2312 9.38329 28.8395 8.99371C27.452 8.61038 26.0625 8.33329 25 8.33329Z" fill="white"/>
</g>
<defs>
<clipPath id="clip0_3049_1527">
<rect width="50" height="50" fill="white"/>
</clipPath>
</defs>
</svg>
